<?xml version="1.0" encoding="UTF-8" standalone="no"?>
<svg
   xmlns:dc="http://purl.org/dc/elements/1.1/"
   xmlns:cc="http://creativecommons.org/ns#"
   xmlns:rdf="http://www.w3.org/1999/02/22-rdf-syntax-ns#"
   xmlns:svg="http://www.w3.org/2000/svg"
   xmlns="http://www.w3.org/2000/svg"
   xmlns:sodipodi="http://sodipodi.sourceforge.net/DTD/sodipodi-0.dtd"
   xmlns:inkscape="http://www.inkscape.org/namespaces/inkscape"
   height="24px"
   version="1.2"
   viewBox="0 0 24 24"
   width="24px"
   xml:space="preserve"
   id="svg25"
   sodipodi:docname="favicon.svg"
   inkscape:version="0.92.4 (5da689c313, 2019-01-14)"><metadata
     id="metadata31"><rdf:RDF><cc:Work
         rdf:about=""><dc:format>image/svg+xml</dc:format><dc:type
           rdf:resource="http://purl.org/dc/dcmitype/StillImage" /></cc:Work></rdf:RDF></metadata><defs
     id="defs29" /><sodipodi:namedview
     pagecolor="#ffffff"
     bordercolor="#666666"
     borderopacity="1"
     objecttolerance="10"
     gridtolerance="10"
     guidetolerance="10"
     inkscape:pageopacity="0"
     inkscape:pageshadow="2"
     inkscape:window-width="1600"
     inkscape:window-height="847"
     id="namedview27"
     showgrid="false"
     inkscape:zoom="9.8333333"
     inkscape:cx="12"
     inkscape:cy="12"
     inkscape:window-x="1912"
     inkscape:window-y="68"
     inkscape:window-maximized="1"
     inkscape:current-layer="svg25" /><g
     id="Layer_1"
     style="fill:#ff0066"
     transform="matrix(-1,0,0,1,24,0)"><g
       id="g4"
       style="fill:#ff0066"><path
         d="M 20,20 H 4 C 2.346,20 1,18.654 1,17 V 7 C 1,5.346 2.346,4 4,4 h 16 c 1.654,0 3,1.346 3,3 v 10 c 0,1.654 -1.346,3 -3,3 z M 4,6 C 3.449,6 3,6.449 3,7 v 10 c 0,0.551 0.449,1 1,1 h 16 c 0.551,0 1,-0.449 1,-1 V 7 C 21,6.449 20.551,6 20,6 Z"
         id="path2"
         style="fill:#ff0066"
         inkscape:connector-curvature="0" /></g><g
       id="g8"
       style="fill:#ff0066"><path
         d="M 10,15 H 6 C 5.447,15 5,14.552 5,14 5,13.448 5.447,13 6,13 h 4 c 0.553,0 1,0.448 1,1 0,0.552 -0.447,1 -1,1 z"
         id="path6"
         style="fill:#ff0066"
         inkscape:connector-curvature="0" /></g><g
       id="g12"
       style="fill:#ff0066"><path
         d="M 10,11 H 6 C 5.447,11 5,10.552 5,10 5,9.448 5.447,9 6,9 h 4 c 0.553,0 1,0.448 1,1 0,0.552 -0.447,1 -1,1 z"
         id="path10"
         style="fill:#ff0066"
         inkscape:connector-curvature="0" /></g><g
       id="g16"
       style="fill:#ff0066"><circle
         cx="16"
         cy="10.5"
         r="2"
         id="circle14"
         style="fill:#ff0066" /></g><g
       id="g22"
       style="fill:#ff0066"><g
         id="g20"
         style="fill:#ff0066"><path
           d="m 16,13.356 c -1.562,0 -2.5,0.715 -2.5,1.429 0,0.357 0.938,0.715 2.5,0.715 1.466,0 2.5,-0.357 2.5,-0.715 0,-0.714 -0.98,-1.429 -2.5,-1.429 z"
           id="path18"
           style="fill:#ff0066"
           inkscape:connector-curvature="0" /></g></g></g></svg>